<svg id="Layer_1" data-name="Layer 1" xmlns="http://www.w3.org/2000/svg" viewBox="0 0 267.47 57.89"><defs><style>.cls-1{fill:#fff;}</style></defs><title>logo</title><path class="cls-1" d="M320.23,398.11l7.28,24.74V385.33A14.85,14.85,0,0,1,320.23,398.11Z" transform="translate(-279.17 -369.64)"/><path class="cls-1" d="M327.51,385.33V372.1a28.48,28.48,0,0,0-9.51-1.63,28.84,28.84,0,0,0-3.1.17A14.86,14.86,0,0,1,327.51,385.33Z" transform="translate(-279.17 -369.64)"/><path class="cls-1" d="M337.18,397.81l4.36-14.94a28.64,28.64,0,0,0-11.65-9.81v24.75Z" transform="translate(-279.17 -369.64)"/><path class="cls-1" d="M308.49,372.1a28.45,28.45,0,0,0-7.26,3.82l7.26,43.57Z" transform="translate(-279.17 -369.64)"/><path class="cls-1" d="M289.47,399a28.47,28.47,0,0,0,1.77,9.9L295.89,381A28.41,28.41,0,0,0,289.47,399Z" transform="translate(-279.17 -369.64)"/><path class="cls-1" d="M343.38,412a28.58,28.58,0,0,0,0-26.06l-3.8,13Z" transform="translate(-279.17 -369.64)"/><polygon class="cls-1" points="16.6 28.18 23.04 28.18 19.82 8.87 16.6 28.18"/><path class="cls-1" d="M313.25,400.18h-2.38v26.44a28.73,28.73,0,0,0,14.95-.18l-8-27.18A14.81,14.81,0,0,1,313.25,400.18Z" transform="translate(-279.17 -369.64)"/><path class="cls-1" d="M329.89,400.19v24.75a28.64,28.64,0,0,0,11.65-9.81l-4.36-14.94Z" transform="translate(-279.17 -369.64)"/><path class="cls-1" d="M325.13,385.33A12.48,12.48,0,0,0,310.87,373v24.83h1.78A12.48,12.48,0,0,0,325.13,385.33Z" transform="translate(-279.17 -369.64)"/><path class="cls-1" d="M295.37,400.19l-2.16,12.94a28.64,28.64,0,0,0,13.56,12.1l-4.17-25Z" transform="translate(-279.17 -369.64)"/><path class="cls-1" d="M288.83,372.62h-6.15v51.91h6.15v3h-9.67V369.64h9.67Z" transform="translate(-279.17 -369.64)"/><path class="cls-1" d="M536.94,369.64h9.7v57.89h-9.7v-3h6.18V372.62h-6.18Z" transform="translate(-279.17 -369.64)"/><path class="cls-1" d="M375.08,407.3q0-5.77-9.84-7.85-5.92-1.26-8.23-3.24a6.77,6.77,0,0,1-2.31-5.43,6.94,6.94,0,0,1,2.94-5.74,12.25,12.25,0,0,1,7.66-2.26,12.93,12.93,0,0,1,8.23,2.45,8,8,0,0,1,3.11,6.61H375a6.55,6.55,0,0,0-2.7-5.33,11,11,0,0,0-7-2.14,10.78,10.78,0,0,0-6.59,1.82,5.86,5.86,0,0,0-1.52,7.9,7.84,7.84,0,0,0,3,2.2,30.4,30.4,0,0,0,6,1.89,25.51,25.51,0,0,1,6.21,2.14,8.4,8.4,0,0,1,3.31,2.92,7.78,7.78,0,0,1,1,4.12,7.16,7.16,0,0,1-3.08,6,13.18,13.18,0,0,1-8.06,2.29,14.11,14.11,0,0,1-8.6-2.42,7.42,7.42,0,0,1-3.27-6.23h1.58a6.55,6.55,0,0,0,2.94,5.2,12.78,12.78,0,0,0,7.34,1.86,11.25,11.25,0,0,0,6.9-2A5.83,5.83,0,0,0,375.08,407.3Z" transform="translate(-279.17 -369.64)"/><path class="cls-1" d="M387,390.75a13.26,13.26,0,0,1,4.57-5.83,11.29,11.29,0,0,1,6.68-2.14q5.1,0,7.57,2.89t2.5,8.72v20.68h-1.58V394.34q0-5.09-2.08-7.54t-6.5-2.44a9.86,9.86,0,0,0-7.1,2.91,14.79,14.79,0,0,0-4.06,7.51v20.28h-1.58v-45H387Z" transform="translate(-279.17 -369.64)"/><path class="cls-1" d="M415.83,398.6a18.56,18.56,0,0,1,1.74-8.16,13.41,13.41,0,0,1,4.92-5.64,13.12,13.12,0,0,1,7.19-2,13,13,0,0,1,12.08,7.53,18.42,18.42,0,0,1,1.8,8.12v1.41a18.67,18.67,0,0,1-1.73,8.17,13.33,13.33,0,0,1-4.91,5.63,13.12,13.12,0,0,1-7.19,2,13.12,13.12,0,0,1-12.13-7.57,18.39,18.39,0,0,1-1.79-8.07Zm1.58,1.23a16.67,16.67,0,0,0,1.57,7.25,12.35,12.35,0,0,0,4.37,5.14,11.36,11.36,0,0,0,6.4,1.85,11,11,0,0,0,8.83-4.07A15.77,15.77,0,0,0,442,399.51v-.91a16.5,16.5,0,0,0-1.58-7.21,12.54,12.54,0,0,0-4.38-5.17,11.2,11.2,0,0,0-6.34-1.86,11,11,0,0,0-8.85,4.13,15.74,15.74,0,0,0-3.43,10.4Z" transform="translate(-279.17 -369.64)"/><path class="cls-1" d="M465.23,384.54l-2.05-.18a9.38,9.38,0,0,0-6.77,2.62,13.06,13.06,0,0,0-3.57,7.33v20.75h-1.58v-31.7h1.58V390a11.67,11.67,0,0,1,3.87-5.24,10.49,10.49,0,0,1,6.47-1.93,6.29,6.29,0,0,1,2.23.33Z" transform="translate(-279.17 -369.64)"/><path class="cls-1" d="M476.33,374.81v8.55h7.21v1.58h-7.21v22.52a9,9,0,0,0,1.1,5,4.12,4.12,0,0,0,3.68,1.61,22.73,22.73,0,0,0,3.13-.26l.26,1.49a10.81,10.81,0,0,1-3.31.35q-3.46,0-5-1.92t-1.52-6.06V384.95h-5.86v-1.58h5.86v-8.55Z" transform="translate(-279.17 -369.64)"/><path class="cls-1" d="M503.17,415.65a12.75,12.75,0,0,1-7-2.07,14.17,14.17,0,0,1-5-5.67,17.51,17.51,0,0,1-1.82-8V398.6a18.37,18.37,0,0,1,1.76-8.06,13.93,13.93,0,0,1,4.83-5.71,11.85,11.85,0,0,1,6.71-2.05,11.09,11.09,0,0,1,8.67,3.78,14.37,14.37,0,0,1,3.37,9.93v1.67H490.86v1.73a15.92,15.92,0,0,0,1.63,7.15A12.8,12.8,0,0,0,497,412.2a11.08,11.08,0,0,0,6.2,1.87A12.6,12.6,0,0,0,508.6,413a11,11,0,0,0,4-3.27l1.11.79Q510.14,415.65,503.17,415.65Zm-.59-31.29a10.35,10.35,0,0,0-7.85,3.44,14.66,14.66,0,0,0-3.78,8.77H513v-.38a13.38,13.38,0,0,0-1.36-6,10.5,10.5,0,0,0-3.75-4.31A9.66,9.66,0,0,0,502.58,384.36Z" transform="translate(-279.17 -369.64)"/><path class="cls-1" d="M536,384.54l-2.05-.18a9.38,9.38,0,0,0-6.77,2.62,13.06,13.06,0,0,0-3.57,7.33v20.75H522v-31.7h1.58V390a11.67,11.67,0,0,1,3.87-5.24,10.49,10.49,0,0,1,6.47-1.93,6.29,6.29,0,0,1,2.23.33Z" transform="translate(-279.17 -369.64)"/></svg>